<?xml version="1.0" standalone="no"?>
<!DOCTYPE svg PUBLIC "-//W3C//DTD SVG 20010904//EN"
 "http://www.w3.org/TR/2001/REC-SVG-20010904/DTD/svg10.dtd">
<svg version="1.0" xmlns="http://www.w3.org/2000/svg"
 width="94.000000pt" height="108.000000pt" viewBox="0 0 94.000000 108.000000"
 preserveAspectRatio="xMidYMid meet">

<g transform="translate(0.000000,108.000000) scale(0.100000,-0.100000)"
fill="#FFFFFF" stroke="none">
<path d="M740 1014 c-304 -95 -482 -176 -558 -252 -24 -24 -56 -69 -70 -100
-23 -49 -27 -70 -26 -152 0 -101 11 -141 61 -212 l26 -38 -76 -89 -75 -89 33
-32 c41 -39 37 -41 131 71 62 74 67 78 87 65 35 -22 126 -46 177 -46 100 0
222 56 279 129 90 114 152 355 179 694 7 84 6 97 -8 97 -8 -1 -80 -21 -160
-46z m58 -92 c-1 -5 -120 -147 -263 -316 l-260 -308 -32 37 c-68 79 -81 205
-32 301 42 84 147 142 439 245 144 51 154 54 148 41z"/>
</g>
</svg>